<?xml version="1.0" standalone="no"?>
<!DOCTYPE svg PUBLIC "-//W3C//DTD SVG 20010904//EN"
 "http://www.w3.org/TR/2001/REC-SVG-20010904/DTD/svg10.dtd">
<svg version="1.0" xmlns="http://www.w3.org/2000/svg"
 width="512.000000pt" height="512.000000pt" viewBox="0 0 512.000000 512.000000"
 preserveAspectRatio="xMidYMid meet">
<metadata>
Created by potrace 1.14, written by Peter Selinger 2001-2017
</metadata>
<g transform="translate(0.000000,512.000000) scale(0.100000,-0.100000)"
fill="#000000" stroke="none">
<path d="M578 5006 c-1 -2 -25 -6 -53 -9 -160 -16 -309 -123 -380 -271 -29
-61 -82 -238 -99 -331 -3 -17 -8 -39 -10 -50 -2 -11 -7 -45 -11 -75 -4 -30 -9
-64 -12 -75 -9 -37 -11 -429 -3 -510 22 -226 52 -396 105 -588 l37 -136 -31
-83 c-39 -106 -56 -168 -82 -298 -28 -141 -35 -450 -13 -595 46 -304 162 -590
340 -832 20 -27 13 -38 -36 -63 -83 -42 -106 -108 -54 -149 38 -30 60 -26 138
19 38 22 70 39 72 38 1 -2 51 -50 111 -107 59 -58 147 -136 195 -174 l87 -68
-35 -49 c-19 -27 -37 -61 -40 -76 -7 -38 19 -72 63 -80 33 -6 39 -4 72 32 20
21 43 50 51 62 l15 24 79 -47 c182 -108 429 -216 613 -271 144 -42 183 -52
323 -79 65 -13 152 -24 225 -30 44 -3 96 -8 115 -11 47 -7 304 -6 415 1 78 5
156 15 320 40 78 12 292 68 400 105 204 69 358 139 534 244 l84 50 20 -30 c40
-56 85 -94 110 -94 13 0 37 10 52 22 23 18 26 27 22 59 -3 22 -20 57 -41 85
l-36 47 23 16 c67 46 180 144 284 249 45 45 85 82 88 82 4 0 38 -19 76 -41 57
-34 75 -40 102 -35 21 4 38 15 45 29 29 57 15 88 -59 132 -32 20 -59 39 -59
42 0 3 27 46 61 97 138 206 251 492 285 721 18 123 22 191 19 340 -2 94 -6
182 -9 197 -2 16 -7 47 -11 70 -12 70 -13 74 -40 174 -14 53 -38 127 -52 165
l-25 68 36 133 c37 138 60 241 71 318 3 25 10 72 16 105 18 115 24 231 23 435
-1 188 -6 242 -39 440 -15 92 -81 301 -113 359 -19 35 -59 87 -88 116 -56 53
-156 111 -209 121 -16 2 -38 7 -47 10 -32 10 -229 3 -333 -11 -81 -11 -243
-45 -287 -61 -23 -8 -50 -16 -62 -19 -86 -18 -326 -136 -421 -207 -161 -119
-276 -237 -367 -375 -50 -76 -65 -92 -82 -88 -184 39 -739 39 -1008 1 -24 -3
-38 -1 -38 6 0 29 -125 194 -215 283 -282 283 -662 445 -1101 471 -54 3 -104
7 -111 9 -6 2 -13 2 -15 1z"/>
</g>
</svg>
